<svg width="49" height="48" viewBox="0 0 49 48" fill="none" xmlns="http://www.w3.org/2000/svg">
<path d="M24.5229 26.41C24.5229 23.5343 27.7078 23.8125 27.7078 20.4626C27.7078 18.2466 26.0793 17.02 23.9766 17.02C21.946 17.02 20.3175 18.2259 20.0186 20.2874L21.4926 20.4626C21.7296 19.1845 22.6778 18.3188 23.9972 18.3188C25.3475 18.3188 26.2957 19.2464 26.2957 20.5863C26.2957 22.9055 23.152 23.6167 23.1108 25.7813V27.4098H24.5229V26.41ZM24.997 30.2443C24.997 29.698 24.5642 29.1826 23.9354 29.1826C23.3067 29.1826 22.8737 29.698 22.8737 30.2443C22.8737 30.7906 23.3067 31.306 23.9354 31.306C24.5642 31.306 24.997 30.7906 24.997 30.2443Z" fill="black"/>
<path fill-rule="evenodd" clip-rule="evenodd" d="M43.1455 23.9999C43.1455 13.6183 34.7161 5.18892 24.3345 5.18892C13.9529 5.18892 5.52352 13.6183 5.52352 23.9999C5.52352 34.3814 13.9529 42.8108 24.3345 42.8108C34.7161 42.8108 43.1455 34.3814 43.1455 23.9999ZM41.5994 23.9999C41.5994 33.529 33.8637 41.2647 24.3345 41.2647C14.8053 41.2647 7.06963 33.529 7.06963 23.9999C7.06963 14.4707 14.8053 6.73502 24.3345 6.73502C33.8637 6.73502 41.5994 14.4707 41.5994 23.9999Z" fill="black"/>
</svg>
