<svg width="41" height="47" viewBox="0 0 41 47" fill="none" xmlns="http://www.w3.org/2000/svg">
<g opacity="0.7">
<path d="M16.9984 0.0643782C16.6954 0.155644 16.2208 0.232307 15.6659 0.279766C14.7277 0.367381 14.5013 0.473249 14.2531 0.955133L14.0998 1.25814L13.8953 1.24353C13.4792 1.20703 13.2127 1.14862 12.9717 1.0391C12.6724 0.900374 12.5884 0.918627 12.4095 1.14862C12.3183 1.27274 12.2891 1.3421 12.2891 1.46257C12.2891 1.72177 12.5264 2.32412 12.7271 2.57601L12.844 2.71839L12.7892 3.0798C12.7563 3.27694 12.7198 3.56899 12.7089 3.72962C12.6943 3.89024 12.6541 4.17499 12.614 4.36483C12.4752 5.04749 12.4862 5.40526 12.6541 5.55493C12.7235 5.61699 12.7344 5.61699 12.9316 5.54033C13.2382 5.42351 13.3916 5.43811 13.5595 5.59144C13.6398 5.6608 13.7165 5.77032 13.7347 5.83603C13.7566 5.90904 13.815 5.97841 13.888 6.02221C14.1545 6.17919 14.4758 5.96745 14.6875 5.50017C14.8299 5.18257 15.0416 4.94893 15.2972 4.8175C15.4432 4.74449 15.5381 4.72624 15.7718 4.71894L16.0675 4.71529L16.1113 4.54371C16.1697 4.30642 16.1733 4.30276 16.4471 4.18229C16.5786 4.12023 16.71 4.04722 16.7355 4.01436C16.8122 3.9085 16.783 3.76247 16.6297 3.47042L16.4763 3.18567L16.4982 2.84616C16.5128 2.65998 16.5421 2.4665 16.5676 2.41904C16.5932 2.37158 16.7136 2.25841 16.8341 2.16714C16.9984 2.05032 17.086 1.95176 17.1627 1.80208C17.2247 1.68891 17.2904 1.58669 17.316 1.57939C17.3379 1.56844 17.4365 1.58669 17.535 1.6159C17.7687 1.68891 18.2104 1.66701 18.3126 1.57574C18.4002 1.49543 18.3893 1.47717 18.068 1.10116C17.6847 0.655781 17.5642 0.484201 17.4547 0.225006C17.3415 -0.0414901 17.3488 -0.0378395 16.9984 0.0643782Z" fill="black" fill-opacity="0.6"/>
<path d="M18.6968 1.77301C18.6165 1.79126 18.4522 1.83142 18.3318 1.86427C18.215 1.89713 18.0178 1.92268 17.8937 1.92268C17.7732 1.92633 17.6126 1.94824 17.5396 1.97379C17.3607 2.03585 16.8788 2.40822 16.8131 2.53234C16.7839 2.59075 16.762 2.73677 16.762 2.9047C16.762 3.16755 16.7693 3.19675 16.919 3.43405C17.0942 3.72245 17.1015 3.78451 16.9993 4.01815C16.9226 4.19703 16.7912 4.3029 16.5503 4.37591C16.3787 4.42702 16.2765 4.55114 16.2473 4.73732C16.2071 4.99287 16.1706 5.01112 15.8895 4.93811L15.6449 4.87605L15.466 4.97461C15.3675 5.02937 15.1995 5.14984 15.09 5.24841C14.9184 5.39809 14.8673 5.4784 14.7359 5.79236C14.6446 6.00774 14.5424 6.18662 14.4877 6.23043C14.3672 6.329 14.0824 6.32535 13.6699 6.22313L13.3487 6.14647L13.2647 6.22313C13.042 6.43122 12.9799 7.03722 13.1296 7.51911C13.2282 7.83306 13.345 7.95353 13.9839 8.40256C14.5132 8.77492 14.6154 8.84794 14.9732 9.13269C15.3054 9.39553 15.9005 9.69853 16.0866 9.69853C16.1633 9.69853 16.3385 9.65473 16.4736 9.59997C16.6963 9.516 16.7803 9.50505 17.1818 9.5014C17.7185 9.49775 18.0361 9.55616 18.2515 9.70219C18.5034 9.87376 18.7151 9.82996 18.7151 9.60727C18.7151 9.47585 18.6676 9.40648 18.3026 9.01587C18.1492 8.84794 18.1346 8.81508 18.1675 8.74572C18.1931 8.70556 18.2259 8.51208 18.2442 8.32225C18.3026 7.69434 18.4632 7.47165 19.2736 6.90945C19.7957 6.54439 19.9308 6.40931 19.9965 6.19027C20.022 6.10631 20.0658 6.0333 20.0914 6.02235C20.1826 5.98584 20.3031 6.0479 20.3652 6.15742C20.4747 6.3509 20.6134 6.25234 20.5587 6.01869C20.5112 5.79966 20.1644 5.5003 19.9563 5.5003C19.9162 5.5003 19.7847 5.54046 19.6643 5.59157C19.5438 5.64268 19.4087 5.68284 19.3649 5.68284C19.2335 5.68284 18.9962 5.52951 18.9159 5.39444C18.8757 5.32872 18.7735 5.19365 18.6895 5.09508C18.6019 4.99652 18.5216 4.8724 18.5107 4.82494C18.4778 4.69716 18.5216 4.49273 18.6275 4.28829L18.7187 4.10941L18.5216 3.90133C18.0835 3.4377 18.1127 3.32088 18.883 2.49218C19.1203 2.23664 19.3649 1.97014 19.4197 1.90078L19.5255 1.77666H19.3978C19.3284 1.77666 19.1751 1.76936 19.0583 1.76205C18.9414 1.7511 18.7772 1.7584 18.6968 1.77301Z" fill="black" fill-opacity="0.6"/>
<path d="M19.8499 1.95917C19.7659 1.98107 19.6637 2.05773 19.5213 2.21106C19.4082 2.33153 19.211 2.51406 19.0796 2.61628C18.8168 2.82437 18.7146 2.93754 18.5211 3.24054L18.3896 3.44498L18.5393 3.58735C18.8131 3.85385 18.8825 4.11304 18.7547 4.4343C18.6671 4.65699 18.6853 4.7446 18.8752 5.00015C19.149 5.36886 19.1526 5.36886 19.7805 5.35791C20.0799 5.35426 20.3573 5.36156 20.3975 5.37251C20.4377 5.38711 20.4997 5.46013 20.5399 5.53679C20.6384 5.72662 20.7078 5.75948 20.883 5.70107C21.1605 5.60615 21.2919 5.6025 21.6862 5.68281C21.9016 5.72662 22.106 5.75218 22.1425 5.73757C22.1936 5.72297 22.2155 5.66821 22.2301 5.50028C22.2447 5.37981 22.2885 5.18998 22.3323 5.07316C22.3725 4.95634 22.4163 4.83587 22.4273 4.80301C22.4382 4.76285 22.398 4.72635 22.2922 4.67889C21.9965 4.54382 21.9892 4.43065 22.2666 4.06193C22.3615 3.93051 22.4309 3.80274 22.4199 3.77353C22.3907 3.70052 22.1644 3.60195 22.0147 3.60195C21.9454 3.60195 21.8541 3.5837 21.8139 3.56545C21.7227 3.51434 21.6351 3.33911 21.6351 3.20038C21.6351 3.06531 21.8431 2.83167 22.325 2.4228L22.6317 2.15995L22.4711 2.1344C22.1535 2.07964 21.2116 1.99567 20.6895 1.97377C20.3975 1.96282 20.1164 1.95187 20.0653 1.94456C20.0142 1.93726 19.9193 1.94456 19.8499 1.95917Z" fill="black" fill-opacity="0.6"/>
<path d="M11.1873 2.10501C11.1106 2.15247 11.0705 2.3277 11.0997 2.48467C11.1106 2.54674 11.1873 2.67451 11.2676 2.76212C11.4319 2.94465 11.4319 2.941 11.3589 3.03957C11.2859 3.13449 11.2895 3.25131 11.3771 3.42289C11.4574 3.57621 11.4465 3.63827 11.3078 3.7624C11.1982 3.86096 11.0267 3.85366 10.9171 3.74049C10.866 3.69303 10.7894 3.54701 10.7456 3.41559C10.6908 3.25861 10.6433 3.17829 10.5995 3.17099C10.563 3.16369 10.3586 3.23305 10.1469 3.32797C9.88401 3.44479 9.73798 3.49225 9.67592 3.47765C9.5372 3.44114 9.34736 3.25131 9.20134 2.99941C8.98595 2.6307 8.90929 2.6453 8.80342 3.08338C8.73771 3.36448 8.60263 3.66383 8.33249 4.13111C8.14265 4.45967 8.07329 4.67871 8.03679 5.04377C8.00393 5.39058 7.96012 5.51835 7.8506 5.56946C7.64252 5.66073 7.47094 5.58406 7.47094 5.39423C7.47094 5.25916 7.29936 5.00726 7.15333 4.92695C7.03286 4.86489 7.02556 4.86489 6.89414 4.93425C6.70795 5.03282 6.54368 5.33947 6.54368 5.59136C6.54003 5.73739 6.57288 5.83596 6.6897 6.06595C6.77367 6.22657 6.88319 6.47117 6.93794 6.61354C6.98905 6.75227 7.11318 7.00781 7.21174 7.17939C7.42348 7.53715 7.42713 7.5189 7.09127 7.86206C6.9416 8.01539 6.83573 8.09205 6.78097 8.09205C6.72986 8.09205 6.60939 8.01904 6.49987 7.92412C6.39035 7.83285 6.30273 7.77809 6.30273 7.8073C6.30273 7.94967 6.46701 8.49727 6.57653 8.74186C6.76271 9.14343 6.81747 9.19089 7.07302 9.17994C7.36142 9.16899 7.48919 9.26755 8.02583 9.90641C8.46391 10.4321 8.58073 10.5234 8.6939 10.4285C8.73406 10.3956 8.74866 10.297 8.74866 10.0305C8.74866 9.63992 8.78882 9.5304 9.03341 9.23105C9.2415 8.9755 9.60656 8.83313 9.79274 8.93535C9.8694 8.9755 9.92781 8.9755 10.1469 8.93535C10.2929 8.90614 10.501 8.87694 10.6141 8.86963C10.8076 8.85138 10.8222 8.85503 10.9062 8.96455C11.1581 9.29676 11.1581 9.29676 11.5049 9.36612C11.6874 9.40628 11.9904 9.49754 12.1803 9.57056C12.5818 9.72753 12.7132 9.72753 12.9542 9.56325L13.1112 9.45739L13.312 9.54865C13.4799 9.62897 13.5784 9.64722 13.9143 9.65452C14.137 9.66182 14.5057 9.65817 14.7357 9.64357L15.1555 9.61801L14.9912 9.47199C14.9 9.39167 14.6444 9.20549 14.4254 9.05947C13.8048 8.64695 13.0528 7.8365 12.9177 7.43859C12.8921 7.36922 12.8739 7.18669 12.8739 7.03336C12.8739 6.71941 12.9359 6.50767 13.144 6.09515C13.217 5.94913 13.2754 5.80675 13.2754 5.7739C13.2754 5.69723 13.1623 5.70453 12.8629 5.79945L12.611 5.88341L12.5234 5.7812C12.2971 5.51835 12.2058 4.70791 12.3701 4.39396C12.4358 4.26618 12.4541 4.14571 12.4796 3.65653C12.4942 3.33527 12.5271 3.02132 12.549 2.95561C12.6256 2.71832 12.5344 2.62705 11.9065 2.3131C11.4793 2.10136 11.2895 2.04295 11.1873 2.10501Z" fill="black" fill-opacity="0.6"/>
<path d="M5.64201 3.03968C5.51423 3.1492 5.34631 3.29522 5.27329 3.36094L5.13457 3.48141L5.18933 3.66759C5.26599 3.91948 5.22949 3.9998 4.77681 4.58025C4.57602 4.83579 4.38619 5.09499 4.35333 5.1607C4.27667 5.31768 4.28032 5.48926 4.37159 5.88717C4.4592 6.27049 4.43365 6.44572 4.26572 6.61365C4.09779 6.78523 3.95176 6.82539 3.38226 6.85094C2.92228 6.8765 2.81642 6.8911 2.57912 6.98602C2.06439 7.1868 1.8855 7.35838 1.8855 7.64678C1.8855 7.90963 1.67377 8.26009 1.43648 8.39881C1.35251 8.44992 1.10427 8.54849 0.888881 8.62515C0.669843 8.69816 0.458106 8.78943 0.414298 8.82594L0.333984 8.888L0.4216 9.13989C0.59683 9.64733 0.673493 9.7678 0.870628 9.87367C1.15903 10.0306 1.26855 10.1365 1.37807 10.3738C1.47298 10.5819 1.49854 10.6805 1.48758 10.7863C1.48758 10.8119 1.32696 10.9944 1.13712 11.1915L0.790314 11.5493L0.877929 11.7282C0.929038 11.8268 0.987448 12.0129 1.0057 12.1371C1.07141 12.5569 1.32696 12.8526 1.83074 13.0935C2.20676 13.2724 2.53897 13.3345 2.88943 13.2834C3.29465 13.2249 3.41147 13.2286 3.65606 13.3126C4.08319 13.4586 4.52126 13.3783 4.56872 13.141C4.57967 13.0862 4.65634 12.8745 4.73665 12.6737C4.82061 12.4729 4.93743 12.1809 5.00315 12.0275C5.13457 11.7026 5.13092 11.7026 5.69312 11.6333C5.98882 11.5968 6.26261 11.5238 6.54371 11.4106C6.64593 11.3704 6.68244 11.3741 6.86497 11.4471C7.05845 11.5274 7.07306 11.5274 7.16067 11.4726C7.21178 11.4398 7.28479 11.3485 7.32495 11.2646C7.48923 10.9433 7.64255 10.9031 7.97476 11.0893C8.24126 11.239 8.32522 11.2244 8.33983 11.02C8.35443 10.8265 8.20475 10.5344 7.86159 10.0854C7.48558 9.59257 7.3359 9.4575 7.11321 9.41004C7.00734 9.38813 6.86497 9.36988 6.79561 9.36988C6.67514 9.36988 6.66418 9.35893 6.52546 9.08513C6.24071 8.51928 6.09834 7.97534 6.1896 7.80376C6.22611 7.7344 6.26261 7.72709 6.49991 7.73075C6.76275 7.7344 6.87592 7.70154 7.00734 7.58837C7.09861 7.50806 7.08401 7.39124 6.94528 7.13569C6.87592 7.00792 6.77735 6.78888 6.72259 6.65016C6.67149 6.50778 6.57292 6.2924 6.50356 6.16462C6.39769 5.97844 6.37578 5.89813 6.37578 5.7229C6.37578 5.36513 6.53276 4.94896 6.81751 4.56565L6.95624 4.37581L6.70434 4.29915C6.4488 4.21884 6.43419 4.20788 6.24801 3.91948C6.06548 3.64203 6.01437 3.49601 5.97056 3.16745C5.94866 2.98492 5.9158 2.83524 5.9012 2.83524C5.8866 2.83524 5.76978 2.92651 5.64201 3.03968Z" fill="black" fill-opacity="0.6"/>
<path d="M3.30995 5.01478C3.25884 5.02208 3.02885 5.07684 2.79886 5.13525C2.56887 5.19366 2.14175 5.28493 1.8497 5.33604C1.39337 5.41635 1.13052 5.47476 0.856727 5.56238C0.820221 5.57333 0.791016 5.59158 0.791016 5.60618C0.791016 5.61714 0.867679 5.71935 0.958945 5.82887C1.16703 6.08442 1.33131 6.39837 1.37512 6.64296C1.43718 6.96787 1.49559 6.97882 2.28778 6.81454C2.93394 6.67947 3.40122 6.60646 3.8539 6.5736L4.19706 6.54805L4.1715 6.15013C4.1423 5.69015 4.07659 5.43826 3.94151 5.28128C3.79184 5.1024 3.51439 4.98558 3.30995 5.01478Z" fill="black" fill-opacity="0.6"/>
<path d="M10.4719 9.11434C10.3003 9.22021 10.0046 9.24576 9.82937 9.17275C9.57017 9.06323 9.35844 9.11434 9.17225 9.33338C9.04083 9.49401 8.97512 9.74225 8.92766 10.2935C8.90576 10.5527 8.8729 10.8046 8.8583 10.852C8.84005 10.8995 8.74148 10.9798 8.63196 11.0382L8.43848 11.1368L8.78164 11.2025C8.97147 11.239 9.16495 11.2938 9.21241 11.3266C9.31463 11.3923 9.4351 11.5749 9.4643 11.7063C9.55192 12.0896 9.80381 12.2028 10.1908 12.0312C10.3003 11.9837 10.4427 11.9545 10.5777 11.9509C10.7712 11.9509 10.8041 11.9618 10.9319 12.0787C11.0998 12.232 11.3006 12.3598 11.8993 12.7066C12.1366 12.8453 12.4469 13.0461 12.5929 13.1519C12.8338 13.3345 12.863 13.3491 13.0529 13.3491C13.166 13.3491 13.3632 13.3746 13.4873 13.4038C13.7355 13.4622 13.9728 13.4841 14.0276 13.4513C14.0459 13.4367 14.2138 13.4038 14.4036 13.371C14.6738 13.3235 14.8198 13.2724 15.0936 13.13C15.2871 13.0278 15.4696 12.9475 15.5025 12.9475C15.5317 12.9475 15.7616 13.0315 16.0099 13.13C16.2581 13.2323 16.4918 13.3126 16.5319 13.3126C16.751 13.3126 16.7838 13.4294 16.6889 13.8857C16.6195 14.2106 16.6415 14.2727 16.9079 14.5538C17.1233 14.7765 17.4921 14.9773 17.6125 14.9408C17.649 14.9298 17.733 14.8239 17.8024 14.7071C17.8681 14.5939 17.9557 14.4443 17.9958 14.3786C18.0323 14.3128 18.1236 14.2289 18.2003 14.1924C18.423 14.0792 18.9267 13.9332 19.0983 13.9332C19.259 13.9332 19.2626 13.9332 19.3685 14.1486C19.4853 14.3749 19.6277 14.5173 19.7445 14.5173C19.9489 14.5173 19.8029 14.2216 19.3283 13.6776C18.4777 12.6993 18.3974 12.4948 18.2404 10.9214C18.1492 10.0051 18.1346 9.89558 18.0798 9.82986C18.036 9.77145 17.7403 9.69844 17.211 9.62543L16.897 9.57797L16.6488 9.73495C16.4516 9.85907 16.3713 9.88827 16.2362 9.88827C15.8602 9.89192 13.6406 9.7678 13.396 9.7313C13.1076 9.69114 13.0529 9.70574 12.9142 9.86272C12.8375 9.95399 12.8119 9.96129 12.6586 9.94303C12.5673 9.93208 12.2534 9.83351 11.9613 9.724C11.6693 9.61448 11.3188 9.49766 11.1838 9.46115C10.972 9.40639 10.9246 9.37719 10.8771 9.28227C10.7493 9.02672 10.669 8.99387 10.4719 9.11434Z" fill="black" fill-opacity="0.6"/>
<path d="M7.61252 11.2536C7.58332 11.2865 7.52125 11.3924 7.47015 11.4836C7.41174 11.5895 7.32777 11.6771 7.24381 11.7246C7.12334 11.7903 7.09413 11.7903 6.98826 11.7465C6.76922 11.6589 6.65605 11.6625 6.28369 11.783C6.06465 11.8523 5.80546 11.9034 5.63388 11.9144C5.36008 11.9327 5.34913 11.94 5.29072 12.0495C5.26151 12.1115 5.15564 12.3014 5.05708 12.4729C4.92565 12.7029 4.86724 12.8599 4.82344 13.0717C4.75772 13.4185 4.70662 13.5061 4.50583 13.6083C4.3525 13.685 4.22108 13.6886 3.81586 13.6192C3.68809 13.5973 3.68079 13.6046 3.58222 13.7762C3.52381 13.8711 3.38509 14.0902 3.27192 14.2618C3.04923 14.594 2.94336 14.7838 2.94336 14.8459C2.94336 14.9444 3.13319 14.9554 3.4508 14.8824C4.27949 14.6852 4.5898 14.5137 4.95121 14.0427C5.41849 13.4331 5.61927 13.1994 5.99529 12.8307C6.73637 12.1042 6.88969 12.0203 7.30222 12.1042C7.94108 12.2357 8.63835 12.535 9.59116 13.0863C10.0913 13.3747 10.2665 13.4586 10.4199 13.4805C10.5914 13.5024 10.6097 13.4988 10.6097 13.4367C10.6097 13.3491 9.82115 12.5715 9.56926 12.4109C9.20785 12.1809 9.22245 12.1992 9.22245 11.9692C9.22245 11.5639 9.07277 11.4508 8.54343 11.4508C8.22218 11.4508 8.20027 11.4471 8.02139 11.323C7.82061 11.1843 7.68918 11.1624 7.61252 11.2536Z" fill="black" fill-opacity="0.6"/>
<path d="M10.4274 12.0678C10.3288 12.1079 10.2229 12.1955 10.1572 12.2978C10.0733 12.4255 10.0842 12.4438 10.5624 13.0096C10.7705 13.2579 10.9969 13.539 11.0589 13.6339C11.121 13.7288 11.2634 13.9077 11.3802 14.0318C11.6467 14.3202 11.7489 14.5393 11.9059 15.1781C12.0957 15.9338 12.1906 16.2112 12.49 16.8903C12.7857 17.551 12.8185 17.6642 12.855 18.1497C12.8843 18.5221 12.9317 18.628 13.0923 18.6572C13.1507 18.6681 13.2493 18.6864 13.3077 18.6973C13.3625 18.7119 13.4611 18.7703 13.5268 18.8324C13.6217 18.9273 13.6399 18.9711 13.6399 19.1245C13.6399 19.3617 13.6801 19.4275 13.8955 19.537C14.2204 19.7013 14.7205 20.2269 14.9177 20.6139C15.1148 21.0045 15.29 21.125 15.6405 21.125C15.896 21.125 16.1005 21.0483 16.1625 20.9352C16.1881 20.8914 16.2173 20.7636 16.2282 20.6541C16.2501 20.4642 16.2611 20.446 16.4509 20.289C16.7357 20.059 16.7576 20.0189 16.7831 19.6574C16.7977 19.4713 16.8306 19.3033 16.8598 19.2559C16.8926 19.2084 17.0022 19.1427 17.108 19.1062C17.338 19.0259 17.4001 18.9091 17.4001 18.544C17.4037 18.4089 17.4183 18.1351 17.4329 17.9416C17.4731 17.5255 17.5388 17.3831 17.7505 17.2663C17.9148 17.175 17.9842 17.1203 17.9842 17.0764C17.9842 17.0582 17.9185 16.9487 17.8382 16.8319C17.6556 16.5617 17.6483 16.4266 17.8053 16.1747C17.9805 15.9009 18.2032 15.4446 18.2032 15.3606C18.2032 15.2657 18.1339 15.2329 17.8382 15.1781C17.5352 15.1197 16.9219 14.8277 16.6955 14.6269C16.4692 14.4261 16.3779 14.2436 16.3779 13.999C16.3779 13.8164 16.3706 13.8018 16.1954 13.6375C15.7317 13.2031 15.531 13.152 15.1696 13.3711C14.757 13.6193 14.2131 13.7434 13.8115 13.6777C13.6071 13.6449 13.4099 13.5645 13.3661 13.4952C13.3296 13.4368 13.2165 13.4514 13.0777 13.5353C12.9244 13.6266 12.9536 13.6375 12.2271 13.1593C10.4128 11.9692 10.515 12.0313 10.4274 12.0678Z" fill="black" fill-opacity="0.6"/>
<path d="M20.0254 14.3714C19.8392 14.6707 19.7626 14.7109 19.4924 14.6415C19.277 14.5868 19.1456 14.532 18.8682 14.3714C18.6783 14.2655 18.6674 14.2655 18.5396 14.3203C18.3534 14.3969 18.1745 14.5466 18.0796 14.7072C17.9774 14.8861 18.0176 14.9226 18.3571 14.9482C18.7732 14.9737 18.8426 15.0796 18.6236 15.3534C18.4775 15.5359 18.4739 15.6199 18.6053 15.6491C18.6564 15.66 18.755 15.7112 18.8243 15.7659C18.9959 15.8973 19.4815 16.131 19.7845 16.2332C20.1568 16.3537 20.2006 16.4267 20.5036 17.4379C20.6059 17.7811 20.7263 18.1425 20.7774 18.241C20.9162 18.5148 21.2374 18.7485 21.5842 18.8251C21.8069 18.8763 21.8252 18.8909 21.9821 19.172C22.0515 19.2997 22.1537 19.4567 22.2048 19.5151C22.318 19.6502 22.3582 19.6356 22.6575 19.3581C22.7853 19.2377 22.9496 19.1281 23.1138 19.0588C23.8148 18.7631 23.8513 18.7229 23.771 18.336C23.6541 17.7774 23.2891 16.8428 23.0007 16.361C22.7451 15.9375 22.621 15.8243 21.8434 15.3096C21.4382 15.0358 20.9052 14.6598 20.6606 14.4663C20.416 14.2728 20.2079 14.1158 20.197 14.1158C20.1897 14.1158 20.1094 14.229 20.0254 14.3714Z" fill="black" fill-opacity="0.6"/>
<path d="M18.2439 16.0468C18.2001 16.0907 18.1672 16.171 18.1672 16.2367C18.1672 16.2987 18.138 16.4083 18.1052 16.4776C18.0468 16.6054 18.0468 16.609 18.1636 16.8244C18.3206 17.1055 18.3023 17.1822 18.0468 17.3173C17.7912 17.456 17.7073 17.6239 17.6343 18.1715C17.605 18.4015 17.5539 18.7228 17.5247 18.8834C17.47 19.19 17.4736 19.2266 17.6014 19.4456C17.6306 19.4967 17.6562 19.5697 17.6562 19.6099C17.6562 19.7376 17.7584 19.8435 17.9044 19.8691C18.2768 19.9311 18.295 19.9421 18.5323 20.267C18.6929 20.4933 18.7988 20.5992 18.9083 20.6539C18.9923 20.6941 19.1529 20.8255 19.2661 20.946C19.5216 21.2125 19.591 21.2198 19.7042 20.9862C19.8502 20.7014 20.416 20.256 21.0001 19.9749C21.6463 19.661 21.8982 19.3835 21.6536 19.2485C21.6134 19.2266 21.5112 19.1462 21.4236 19.0732C21.3287 18.9929 21.2046 18.9272 21.1279 18.9126C20.9162 18.8797 20.7994 18.8213 20.7227 18.7155C20.6825 18.6571 20.584 18.3869 20.5037 18.1058C20.3248 17.4815 20.1605 17.0289 20.0437 16.8244C19.9415 16.6492 19.6932 16.4521 19.5764 16.4521C19.5326 16.4521 19.4632 16.4265 19.4231 16.3973C19.3208 16.3279 18.5834 16.0286 18.4337 15.9957C18.3425 15.9775 18.3023 15.9884 18.2439 16.0468Z" fill="black" fill-opacity="0.6"/>
<path d="M23.5334 19.1063C22.7741 19.5517 22.6171 19.6831 22.4455 20.0116C22.3542 20.1905 22.2484 20.2891 22.0366 20.395C21.803 20.5118 21.7446 20.5738 21.7446 20.7016C21.7446 20.8914 21.876 21.2529 22.0768 21.6252C22.3652 22.1655 22.3688 22.1692 22.3433 22.2349C22.3031 22.3444 22.1023 22.4138 21.803 22.4284C21.5036 22.4393 21.416 22.4758 21.416 22.5817C21.416 22.662 21.5109 22.7496 21.8577 22.9796C22.0074 23.0782 22.2885 23.2826 22.4784 23.4323C22.9967 23.8339 22.9894 23.8339 23.3289 23.8412C23.5845 23.8485 23.6758 23.8704 23.9897 24.0018C24.4862 24.2135 24.5811 24.2245 24.7344 24.0967C24.8002 24.0419 24.9498 23.8558 25.0666 23.6805C25.2857 23.3556 25.4317 23.206 25.5339 23.206C25.5631 23.206 25.7128 23.2644 25.8698 23.3337C26.2933 23.5236 26.348 23.5309 26.4721 23.3812C26.6401 23.184 26.8591 22.6766 26.881 22.4357C26.9066 22.1692 26.8555 22.0779 26.5817 21.9246C26.3042 21.7676 25.6581 21.2018 25.1981 20.7162C24.7454 20.2343 24.4351 19.8109 24.154 19.2925C24.0445 19.088 23.9386 18.9165 23.9167 18.9128C23.8984 18.9092 23.7232 18.9968 23.5334 19.1063Z" fill="black" fill-opacity="0.6"/>
<path d="M17.1817 19.4236C17.1598 19.4528 17.116 19.5806 17.0868 19.7047C17.0466 19.8726 16.9736 20.0187 16.802 20.2669C16.4698 20.7451 16.415 20.8656 16.415 21.1102C16.415 21.2708 16.4442 21.3767 16.5611 21.6249C16.8969 22.3405 17.116 22.6289 17.5431 22.9027C17.9775 23.1838 18.3572 23.5707 18.4886 23.8701C18.5835 24.0782 18.6602 24.1621 19.2005 24.6623C19.9123 25.323 20.0547 25.4326 20.6206 25.7684C20.8579 25.9071 21.1353 26.086 21.2412 26.1663C21.347 26.243 21.4675 26.3087 21.5077 26.3124C21.7267 26.3233 22.7854 26.3489 23.2673 26.3562C23.9828 26.3671 23.9901 26.3598 24.2091 25.7903C24.2639 25.6552 24.3625 25.4508 24.4318 25.334C24.5925 25.0638 24.5998 24.8813 24.4537 24.6805C24.1799 24.3009 23.8222 24.111 23.3512 24.0928C23.1176 24.0818 22.9679 24.049 22.7379 23.965C22.4422 23.8518 22.4349 23.8482 22.3437 23.6584C22.2086 23.3736 21.9531 23.1911 21.5442 23.0816C21.2631 23.0085 21.1974 22.9319 21.1974 22.6617C21.1974 22.304 21.3543 22.2017 21.8435 22.2456L22.11 22.2675L21.9311 21.8695C21.6793 21.3037 21.5916 21.0299 21.5734 20.7597C21.5551 20.4604 21.6245 20.3363 21.8983 20.1902C22.1027 20.0771 22.1502 19.9895 22.0735 19.8507C22.0151 19.7339 21.8764 19.7558 21.6427 19.9165C21.5259 19.9931 21.2996 20.1245 21.1317 20.2049C20.8177 20.3618 20.7556 20.4056 20.23 20.8145C19.7481 21.1942 19.5692 21.311 19.4268 21.3329C19.31 21.3512 19.2844 21.3402 19.1421 21.1796C19.0581 21.0847 18.8938 20.935 18.777 20.8437C18.6638 20.7561 18.4776 20.5699 18.3718 20.4348C18.171 20.1829 18.1126 20.1464 17.784 20.0698C17.5358 20.0114 17.4372 19.9055 17.4044 19.6609C17.3898 19.5514 17.3679 19.4419 17.3496 19.4163C17.3131 19.3579 17.2364 19.3616 17.1817 19.4236Z" fill="black" fill-opacity="0.6"/>
<path d="M27.2858 22.8335C27.1799 22.8773 26.9864 23.0744 26.7601 23.3774C26.4717 23.7644 26.2344 24.0455 26.2015 24.0455C26.1869 24.0455 26.1431 23.9834 26.1102 23.9031C25.9715 23.5964 25.705 23.4249 25.4823 23.4979C25.3144 23.5526 25.1647 23.7352 25.2122 23.8264C25.2304 23.8629 25.267 23.8995 25.2925 23.9068C25.3254 23.9177 25.2816 23.998 25.1757 24.1331C24.8179 24.5858 24.7157 24.8048 24.7595 25.0238C24.796 25.1991 24.8544 25.2283 25.0771 25.1845C25.3035 25.1407 25.5846 25.1881 25.9241 25.3305C26.2563 25.4729 26.5191 25.5422 26.7236 25.5422C27.1069 25.5422 27.7421 25.3232 27.7968 25.1772C27.8114 25.137 27.8078 24.98 27.7895 24.8267C27.7494 24.5201 27.7749 24.4726 28.0232 24.3448C28.1802 24.2682 28.2349 24.1039 28.2386 23.7169C28.2459 23.0927 28.0195 22.8006 27.5413 22.8079C27.4354 22.8079 27.3186 22.8189 27.2858 22.8335Z" fill="black" fill-opacity="0.6"/>
<path d="M30.3601 23.0998C29.1554 23.2093 28.794 23.2531 28.6881 23.286C28.502 23.3444 28.4545 23.4503 28.4253 23.8884C28.3997 24.3118 28.407 24.3009 28.0967 24.4944C27.8667 24.6404 27.9069 24.7974 28.2902 25.2427C28.3815 25.3523 28.4654 25.4837 28.4801 25.5348C28.5202 25.7027 28.6042 25.794 28.867 25.9619L29.1226 26.1262L29.097 26.3562C29.0788 26.5497 29.0861 26.5971 29.1481 26.6738C29.243 26.7906 29.4329 26.8089 30.3784 26.7797C31.4553 26.7468 31.5831 26.7797 31.6744 27.1119C31.7255 27.3054 31.824 27.4149 32.0613 27.5499C32.1745 27.612 32.4227 27.8164 32.6126 27.999L32.9557 28.3312L33.2697 28.2253C33.5581 28.1304 33.5982 28.1267 33.7516 28.1669C33.9925 28.2326 34.1093 28.3604 34.1969 28.6634C34.3612 29.2292 34.3868 29.3022 34.4525 29.4081C34.5401 29.5505 34.6277 29.5505 34.8285 29.4154C34.9125 29.357 35.0804 29.273 35.2009 29.2365C35.4491 29.1526 36.0223 29.1015 36.1829 29.1489C36.3107 29.1854 36.3435 29.2986 36.2596 29.3862C36.0478 29.5943 36.3581 29.7184 37.4424 29.8498C38.1761 29.9411 38.282 29.9703 38.4061 30.0944C38.5448 30.2332 38.7383 30.5909 38.8259 30.8793C38.9245 31.2079 39.0231 31.3904 39.1837 31.551C39.3553 31.7226 39.7204 31.8978 39.8299 31.8613C39.9467 31.8175 40.0891 31.4926 40.2205 30.9815L40.3337 30.5252L40.2132 30.2916C40.0051 29.8827 38.9975 28.9116 38.3368 28.4809C37.9717 28.2399 37.4168 27.9588 37.143 27.8785C37.0298 27.842 36.6027 27.6157 36.1938 27.3747C35.2009 26.787 35.0694 26.7286 34.1276 26.4073C32.5834 25.878 31.4736 25.3997 31.2217 25.1551C31.061 24.9981 30.9479 24.7718 30.9442 24.6075C30.9442 24.4688 31.0793 24.2607 31.4298 23.8555C31.7693 23.4649 31.7875 23.4174 31.6488 23.2714C31.4772 23.0889 31.3823 23.0597 31.0099 23.0633C30.8238 23.067 30.5317 23.0816 30.3601 23.0998Z" fill="black" fill-opacity="0.6"/>
<path d="M25.1438 25.5093C25.0818 25.597 25.0088 25.7065 24.9759 25.7503C24.8993 25.8635 24.8226 25.8562 24.7021 25.7247C24.5634 25.5787 24.494 25.6116 24.4247 25.8671C24.3955 25.9803 24.3371 26.1701 24.3006 26.2942C24.2604 26.4147 24.2275 26.5571 24.2275 26.6045C24.2275 26.6556 24.4101 27.0572 24.6328 27.4989L25.0416 28.2984L25.4469 28.3203C25.6695 28.3313 25.9214 28.3641 26.009 28.3897C26.2135 28.4518 26.4325 28.6452 26.5019 28.8241C26.5785 29.0067 26.6954 29.1198 26.8195 29.1198C26.8742 29.1198 27.0385 29.0797 27.1846 29.0286C27.3306 28.9774 27.4839 28.9373 27.5204 28.9373C27.6299 28.9373 27.9366 29.2731 28.0717 29.5433C28.2359 29.8719 28.3016 30.0799 28.3893 30.5399C28.4696 30.9634 28.528 31.0802 28.674 31.1131C28.8419 31.1532 29.0172 31.2554 29.3056 31.4854C29.5721 31.6972 29.7729 31.8213 29.8459 31.8213C29.8641 31.8213 29.959 31.7592 30.0576 31.6789C30.1562 31.6023 30.3168 31.5037 30.4154 31.4599C30.5176 31.4161 30.6454 31.3358 30.7001 31.281C30.8242 31.1642 30.9447 30.9415 30.9447 30.8356C30.9447 30.7188 30.8206 30.4998 30.5431 30.1274C30.4081 29.9449 30.2146 29.6601 30.1197 29.5031C30.0247 29.3425 29.9006 29.1527 29.8422 29.0833C29.7144 28.919 29.4954 28.4445 29.4406 28.2108C29.3859 27.9699 29.4297 27.875 29.6597 27.7326C29.8532 27.6158 29.9225 27.5026 29.9225 27.3128C29.9225 27.1047 29.7984 27.039 29.3202 26.9842C28.915 26.9404 28.685 26.7287 28.7872 26.506C28.8675 26.3307 28.8383 26.2504 28.6448 26.108C28.4404 25.9584 28.3382 25.8306 28.3016 25.6736C28.2615 25.5057 28.1702 25.3962 28.0717 25.3962C28.0205 25.3962 27.8526 25.4509 27.6993 25.5203C27.4072 25.6481 27.0166 25.7722 26.7757 25.8123C26.6662 25.8306 26.5457 25.7977 26.093 25.6152C25.79 25.4947 25.4797 25.3852 25.3994 25.3743C25.2607 25.3524 25.2534 25.3597 25.1438 25.5093Z" fill="black" fill-opacity="0.6"/>
<path d="M8.64601 26.8309C8.5657 27.0097 8.49999 27.0937 8.39412 27.1594C8.31746 27.2105 8.04366 27.4515 7.78446 27.6924C7.37194 28.083 7.26607 28.1597 6.93752 28.324L6.56515 28.5101L6.02121 28.543C5.69265 28.5649 5.43346 28.6014 5.36409 28.6343C5.1195 28.7474 5.15601 28.9482 5.53202 29.5141C5.88248 30.0434 5.86788 30.0106 6.05041 30.5143C6.20009 30.9196 6.20374 30.9378 6.21834 31.5037C6.2366 32.0768 6.2366 32.0805 6.14168 32.2155C5.992 32.4346 6.02486 32.5624 6.26945 32.7193C6.35707 32.7741 6.43738 32.8617 6.47024 32.9347C6.57245 33.1793 6.51769 33.6502 6.33881 34.0956C6.16723 34.5227 6.07597 35.0776 6.09057 35.5741C6.10152 35.9793 6.10882 36.0159 6.2366 36.2823C6.51404 36.8628 6.81705 37.2023 7.22592 37.3921C7.4121 37.4761 7.43765 37.4798 7.55082 37.4323C7.79907 37.3301 7.967 37.049 8.05461 36.6036C8.11302 36.3043 8.20429 36.1765 8.44158 36.067C8.60951 35.9903 8.68617 35.9757 8.89061 35.9903C9.09869 36.0013 9.17171 36.0268 9.39439 36.1582C9.6974 36.3371 9.88723 36.3627 9.95659 36.2349C10.0552 36.0524 10.2961 34.3293 10.4275 32.8727L10.5042 32.044L10.3509 31.7592C10.1391 31.3576 10.1501 31.2445 10.4932 30.5801C10.6393 30.3026 10.7561 30.0361 10.7561 29.9887C10.7561 29.7404 10.2559 28.6562 9.97484 28.3021C9.88358 28.1816 9.80692 28.0757 9.80692 28.0611C9.80692 28.0502 9.83247 28.0064 9.86168 27.9662C9.93834 27.864 9.93104 27.8275 9.78866 27.6596C9.7193 27.5756 9.66089 27.488 9.66089 27.4624C9.66089 27.3931 9.33233 27.0426 9.20821 26.9805C9.14615 26.9477 9.01838 26.8455 8.92346 26.7578L8.75188 26.5899L8.64601 26.8309Z" fill="black" fill-opacity="0.6"/>
<path d="M30.6784 26.9805C30.3461 27.0535 30.2549 27.1411 30.1235 27.5244C30.0906 27.6193 29.992 27.7836 29.9081 27.8895C29.5868 28.2801 29.554 28.4626 29.762 28.6525C29.8351 28.7182 29.9847 28.9189 30.0943 29.1015C30.3681 29.5469 30.5798 29.8426 30.9156 30.2478C31.1347 30.5143 31.2004 30.6201 31.2004 30.7041C31.2004 30.7662 31.142 31.0181 31.069 31.259C30.8791 31.8796 30.9266 31.9928 31.3136 31.8796C31.6531 31.7774 31.894 31.8139 32.0802 31.9891C32.2372 32.1388 32.4307 32.1425 32.7045 32.011C32.8322 31.949 32.96 31.876 32.9929 31.8504C33.0659 31.7883 33.1863 31.5584 33.2448 31.3576C33.3032 31.1641 33.3506 31.1239 33.6463 31.0181C33.7741 30.9706 33.942 30.8757 34.0114 30.81C34.1757 30.664 34.4166 30.1602 34.4422 29.9229C34.4568 29.7695 34.4385 29.7111 34.3107 29.4775C34.2304 29.3315 34.1209 29.065 34.0698 28.8861C33.9092 28.3312 33.8435 28.2874 33.3908 28.4407C33.2375 28.4918 33.0841 28.5356 33.0586 28.5356C33.0294 28.5356 32.8286 28.386 32.6059 28.2034C32.2299 27.8968 31.8356 27.623 31.7626 27.623C31.6969 27.623 31.529 27.4331 31.5107 27.3382C31.4632 27.1082 31.4304 27.0535 31.3099 26.9951C31.1639 26.9184 30.9777 26.9147 30.6784 26.9805Z" fill="black" fill-opacity="0.6"/>
<path d="M33.4485 31.3541C33.4193 31.4016 33.3682 31.544 33.3354 31.6754C33.2258 32.1134 33.2149 32.139 33.0689 32.1974C32.722 32.3361 32.2 32.2996 31.7181 32.1098C31.4005 31.982 31.2873 31.9747 31.2545 32.0806C31.1815 32.3069 31.4115 32.9823 31.897 33.957C32.1854 34.5448 32.2876 34.7894 32.4044 35.2128C32.5578 35.7422 32.6855 36.0379 32.952 36.476C33.0323 36.6074 33.0981 36.7388 33.0981 36.7717C33.0981 36.852 32.9338 37.1586 32.817 37.2974C32.7549 37.374 32.5906 37.4762 32.3789 37.5748C31.9773 37.761 31.9262 37.8303 31.9956 38.0859C32.1197 38.5532 31.9554 39.2212 31.605 39.663C31.3823 39.9404 31.3092 40.1193 31.3092 40.3931C31.3092 40.6705 31.3859 40.8531 31.5429 40.9553C31.6415 41.0173 31.6999 41.0246 31.9992 41.0064C32.5578 40.9735 32.7805 40.8166 32.879 40.3931C32.9447 40.112 33.1784 39.6411 33.3536 39.4403C33.4412 39.3454 33.5836 39.2249 33.6785 39.1811C33.8939 39.0679 33.9925 38.9584 34.0436 38.7759C34.0655 38.6955 34.0983 38.3013 34.1166 37.8961C34.1421 37.3375 34.164 37.1367 34.2079 37.0491C34.3393 36.7936 34.7956 36.5563 35.5586 36.3409L35.993 36.2204L35.9711 35.7823C35.9273 34.9646 35.7959 34.4097 35.5878 34.1907C35.4016 33.9972 34.9088 33.7124 34.4488 33.5335C33.9596 33.3437 33.8172 33.2634 33.7406 33.1283C33.6384 32.9567 33.6274 32.6537 33.715 32.2449C33.8172 31.7703 33.8172 31.4965 33.715 31.3687C33.6238 31.2519 33.5179 31.2482 33.4485 31.3541Z" fill="black" fill-opacity="0.6"/>
<path d="M30.4183 39.7614C30.3197 39.8308 30.0386 40.0024 29.7904 40.1447L29.3377 40.4039L28.6551 40.4331C28.2754 40.4514 27.9286 40.4842 27.8775 40.5025C27.8264 40.5207 27.746 40.5792 27.7022 40.6303C27.5051 40.842 27.1108 40.9369 25.8879 41.0756C25.4462 41.1231 24.9387 41.1998 24.7562 41.2436C24.5663 41.2874 24.3656 41.3129 24.2816 41.302C24.0553 41.2764 23.7377 41.1414 23.5296 40.9844C23.4018 40.8895 23.2631 40.8237 23.0915 40.7836C22.8615 40.7252 22.8396 40.7142 22.8031 40.5974C22.7556 40.455 22.6571 40.4149 22.4344 40.4514C22.1752 40.4915 22 40.5865 21.8758 40.7507C21.6969 40.9844 21.4012 41.2034 21.2662 41.2034C21.2406 41.2034 21.1092 41.1377 20.9741 41.0574C20.6748 40.8785 20.5433 40.8712 20.317 41.0172C19.9154 41.2764 19.8096 41.4809 19.8096 42.0175C19.8096 42.4921 19.8388 42.5834 20.0469 42.7148C20.1381 42.7695 20.2294 42.8462 20.2476 42.8827C20.2878 42.9557 20.4521 43.0032 20.9705 43.0798C21.3866 43.1419 21.9817 43.3281 22.3285 43.5033C22.449 43.5654 22.7556 43.7516 23.0039 43.9158C24.1684 44.6861 24.3875 44.7883 25.4681 45.0731C26.5705 45.3651 26.6253 45.3943 26.9174 45.8251C27.3481 46.4603 27.8191 46.6794 28.7609 46.694C29.1442 46.6976 29.1515 46.694 29.2611 46.5918C29.3195 46.5333 29.3815 46.4348 29.3961 46.3727C29.4217 46.2449 29.6298 45.8178 29.8233 45.5002L29.951 45.2848L29.7904 44.9453C29.7028 44.7591 29.6298 44.5803 29.6298 44.5474C29.6298 44.5145 29.5495 44.3247 29.4472 44.1276C29.1442 43.5325 29.1442 43.5252 29.3925 42.6965C29.6261 41.908 29.6079 41.9445 29.9875 41.3129C30.495 40.466 30.7724 39.8454 30.714 39.6957C30.6812 39.6044 30.6191 39.619 30.4183 39.7614Z" fill="black" fill-opacity="0.6"/>
</g>
</svg>
