<svg width="48" height="48" viewBox="0 0 48 48" fill="none" xmlns="http://www.w3.org/2000/svg">
<path d="M20.9309 22.7117L7.52708 14.8817L13.9651 11.309L26.8966 19.2352L20.9309 22.7117ZM19.9159 38.8974L6.81869 31.5715V16.358L19.9159 23.9518V38.8974ZM20.8565 7.48534L33.7056 15.2667L28.4423 18.3344L15.5475 10.431L20.8565 7.48534ZM25.7388 38.5035V36.8427L21.7702 39.1871V24.1542L34.5083 16.6745V23.3734H36.0838V15.3183C36.0838 15.3054 36.0818 15.2915 36.0818 15.2786C36.0808 15.2607 36.0798 15.2439 36.0778 15.227C36.0758 15.2091 36.0729 15.1923 36.0699 15.1754C36.0659 15.1585 36.0639 15.1417 36.06 15.1258C36.055 15.1079 36.05 15.0921 36.0441 15.0752C36.0391 15.0593 36.0342 15.0434 36.0282 15.0276C36.0213 15.0117 36.0133 14.9958 36.0064 14.9809C35.9995 14.9651 35.9925 14.9502 35.9846 14.9353C35.9756 14.9204 35.9657 14.9055 35.9568 14.8916C35.9479 14.8778 35.9389 14.8629 35.929 14.85C35.9191 14.8361 35.9072 14.8222 35.8953 14.8093C35.8844 14.7964 35.8744 14.7835 35.8625 14.7716C35.8506 14.7587 35.8367 14.7478 35.8238 14.7349C35.8119 14.724 35.8 14.7121 35.7861 14.7021C35.7723 14.6912 35.7574 14.6813 35.7425 14.6714C35.7316 14.6635 35.7207 14.6545 35.7088 14.6476L21.3347 5.89593C21.0876 5.74414 20.7781 5.74017 20.5271 5.88601L5.63507 14.3668C5.392 14.5077 5.24219 14.7676 5.24219 15.0494V31.9435C5.24219 32.1787 5.34735 32.4019 5.52891 32.5507L20.2026 41.1764C20.3465 41.2954 20.5241 41.3569 20.7037 41.3569H20.9825C21.1214 41.3569 21.2603 41.3202 21.3833 41.2478L25.7477 38.6682C25.7417 38.6147 25.7388 38.5591 25.7388 38.5035Z" fill="#1D1D1B"/>
<path fill-rule="evenodd" clip-rule="evenodd" d="M34.2883 29.7872H35.7973C38.8069 29.7872 41.2691 32.2502 41.2691 35.2597C41.2691 38.2696 38.8069 40.7326 35.7973 40.7326H31.3476C30.9369 40.7326 30.6035 41.066 30.6035 41.4767C30.6035 41.8875 30.9369 42.2208 31.3476 42.2208H35.7973C39.6254 42.2208 42.7573 39.0882 42.7573 35.2597C42.7573 31.4317 39.6254 28.299 35.7973 28.299H34.2883L36.0678 26.5203H33.9259L31.4031 29.0431L33.9259 31.566H36.0678L34.2883 29.7872Z" fill="#1D1D1B"/>
</svg>
