<svg width="49" height="48" viewBox="0 0 49 48" fill="none" xmlns="http://www.w3.org/2000/svg">
<g clip-path="url(#clip0_3264_175)">
<path fill-rule="evenodd" clip-rule="evenodd" d="M3.48538 19.0233H9.28331C9.5755 19.0233 9.81264 18.7861 9.81264 18.4939C9.81264 18.2017 9.5755 17.9646 9.28331 17.9646H3.48538C3.19319 17.9646 2.95605 18.2017 2.95605 18.4939C2.95605 18.7861 3.19319 19.0233 3.48538 19.0233Z" fill="black"/>
<path fill-rule="evenodd" clip-rule="evenodd" d="M1.83597 14.1663H10.1937C10.4859 14.1663 10.7231 13.9292 10.7231 13.637C10.7231 13.3448 10.4859 13.1077 10.1937 13.1077H1.83597C1.54378 13.1077 1.30664 13.3448 1.30664 13.637C1.30664 13.9292 1.54378 14.1663 1.83597 14.1663Z" fill="black"/>
<path fill-rule="evenodd" clip-rule="evenodd" d="M4.62992 23.8804H8.34228C8.63447 23.8804 8.87161 23.6433 8.87161 23.3511C8.87161 23.0589 8.63447 22.8218 8.34228 22.8218H4.62992C4.33773 22.8218 4.10059 23.0589 4.10059 23.3511C4.10059 23.6433 4.33773 23.8804 4.62992 23.8804Z" fill="black"/>
<path fill-rule="evenodd" clip-rule="evenodd" d="M12.4 34.923C13.8172 33.0067 13.6772 30.5717 12.2081 29.4852C10.7389 28.3987 8.36969 28.978 6.95248 30.8942C5.53528 32.8105 5.67528 35.2455 7.14441 36.332C8.61353 37.4186 10.9828 36.8393 12.4 34.923ZM11.5488 34.2935C10.5181 35.6872 8.84241 36.2711 7.7739 35.4809C6.70539 34.6906 6.77296 32.9174 7.80365 31.5237C8.83435 30.1301 10.5101 29.5461 11.5786 30.3364C12.6471 31.1266 12.5795 32.8999 11.5488 34.2935Z" fill="black"/>
<path fill-rule="evenodd" clip-rule="evenodd" d="M32.2666 28.2538C33.0014 28.2538 33.6055 27.6702 33.6387 26.9439L36.7935 12.5546V12.4975C36.7935 11.743 36.1759 11.124 35.42 11.124H13.714C12.9757 11.124 12.3681 11.7155 12.3406 12.4459C12.3406 12.4445 9.7666 26.8331 9.7666 26.8331V26.8804C9.7666 27.6363 10.3842 28.2538 11.14 28.2538H32.2666ZM32.2666 27.1952H11.14C10.9791 27.1952 10.8457 27.0731 10.8274 26.9164L13.3985 12.5447V12.4975C13.3985 12.3245 13.5404 12.1827 13.714 12.1827H35.42C35.5781 12.1827 35.7101 12.3013 35.732 12.4537L32.5814 26.8232V26.8804C32.5814 27.0533 32.4396 27.1952 32.2666 27.1952Z" fill="black"/>
<path fill-rule="evenodd" clip-rule="evenodd" d="M47.9355 23.0953L45.015 15.8562C44.8223 15.3798 44.36 15.0679 43.8455 15.0679H38.013C37.4195 15.0679 36.9056 15.4829 36.7807 16.063L34.5731 26.3348C34.5639 26.3772 34.5568 26.4188 34.5526 26.4598L34.3486 28.2334H36.9692C38.0956 28.2334 39.0166 29.1544 39.0166 30.2808V32.6042H45.1985C45.7984 32.6042 46.315 32.1807 46.4343 31.5935L48.0018 23.8159C48.0505 23.5753 48.0279 23.324 47.9355 23.0953ZM44.0325 16.2522L46.9537 23.492C46.9686 23.5287 46.9721 23.5682 46.9643 23.6063L45.3968 31.3832C45.3777 31.4778 45.2945 31.5455 45.1985 31.5455H40.0753V30.2808C40.0753 28.5728 38.6771 27.1747 36.9692 27.1747H35.5357L35.6056 26.5699C35.6063 26.5607 35.6077 26.5579 35.6084 26.5557C35.6077 26.5571 37.8154 16.286 37.8154 16.286C37.8359 16.1929 37.9177 16.1265 38.013 16.1265H43.8455C43.9281 16.1265 44.0022 16.1759 44.0325 16.2522Z" fill="black"/>
<path fill-rule="evenodd" clip-rule="evenodd" d="M35.7945 34.923C37.2117 33.0067 37.0717 30.5717 35.6026 29.4852C34.1335 28.3987 31.7642 28.978 30.347 30.8942C28.9298 32.8105 29.0698 35.2455 30.5389 36.332C32.0081 37.4186 34.3773 36.8393 35.7945 34.923ZM34.9434 34.2935C33.9127 35.6872 32.2369 36.2711 31.1684 35.4809C30.0999 34.6906 30.1675 32.9174 31.1982 31.5237C32.2289 30.1301 33.9046 29.5461 34.9731 30.3364C36.0416 31.1266 35.974 32.8999 34.9434 34.2935Z" fill="black"/>
<path fill-rule="evenodd" clip-rule="evenodd" d="M44.5632 23.4314C44.9648 23.4314 45.2443 23.034 45.1109 22.6564L43.1601 17.169C43.0775 16.9383 42.8588 16.7837 42.6132 16.7837H39.3101C39.0398 16.7837 38.8048 16.97 38.7434 17.234L37.4829 22.7207C37.3989 23.0841 37.6756 23.4314 38.0489 23.4314H44.5632ZM44.5632 23.0785H38.0489C37.9028 23.0785 37.7941 22.943 37.8273 22.7997L39.0878 17.313C39.1111 17.21 39.2036 17.1366 39.3101 17.1366H42.6132C42.7091 17.1366 42.7952 17.1966 42.827 17.2876L44.7778 22.7736C44.8307 22.9225 44.7206 23.0785 44.5632 23.0785Z" fill="black"/>
</g>
<defs>
<clipPath id="clip0_3264_175">
<rect width="48" height="48" fill="white" transform="translate(0.666992)"/>
</clipPath>
</defs>
</svg>
